<?xml version="1.0" standalone="no"?>
<!DOCTYPE svg PUBLIC "-//W3C//DTD SVG 20010904//EN"
 "http://www.w3.org/TR/2001/REC-SVG-20010904/DTD/svg10.dtd">
<svg version="1.0" xmlns="http://www.w3.org/2000/svg"
 width="1024.000000pt" height="818.000000pt" viewBox="0 0 1024.000000 818.000000"
 preserveAspectRatio="xMidYMid meet">

<g transform="translate(0.000000,818.000000) scale(0.100000,-0.100000)"
fill="#000000" stroke="none">
<path d="M8700 5963 c-147 -18 -307 -132 -375 -268 -41 -82 -55 -143 -55 -246
0 -154 46 -271 148 -374 77 -78 157 -120 265 -140 81 -15 93 -15 170 0 395 79
552 564 280 865 -59 65 -141 119 -218 143 -55 17 -160 27 -215 20z"/>
<path d="M7323 5090 c-90 -19 -154 -70 -211 -165 -16 -27 -35 -49 -41 -47 -35
7 -301 32 -350 32 -61 0 -213 -23 -270 -41 -217 -65 -389 -185 -541 -375 -77
-96 -144 -256 -175 -419 -20 -105 -20 -304 0 -392 81 -354 330 -606 680 -688
176 -41 480 -39 640 5 38 10 72 17 74 14 11 -11 -41 -49 -114 -84 -113 -54
-262 -78 -385 -62 -135 18 -266 15 -327 -7 -102 -37 -167 -93 -203 -174 -88
-199 33 -375 308 -449 102 -27 361 -29 497 -4 398 74 706 303 887 657 88 172
128 306 165 554 25 164 25 775 0 930 -52 322 -150 559 -269 648 -75 56 -117
70 -223 73 -55 2 -119 -1 -142 -6z m-405 -908 c59 -29 110 -79 144 -144 32
-61 32 -185 0 -246 -54 -102 -146 -162 -258 -170 -62 -4 -80 -1 -127 21 -67
31 -132 94 -160 156 -29 63 -29 169 0 231 74 162 246 227 401 152z"/>
<path d="M3685 4950 c-210 -82 -315 -410 -315 -982 0 -275 16 -432 61 -613 79
-320 221 -456 441 -425 118 17 167 47 212 130 48 89 56 138 66 400 10 258 21
332 62 420 48 103 100 140 198 140 117 -1 179 -48 218 -166 33 -97 40 -159 47
-374 9 -300 34 -399 120 -486 92 -92 311 -100 427 -14 96 70 151 181 190 385
20 107 17 492 -5 625 -54 327 -142 526 -302 687 -152 152 -342 223 -592 223
-150 0 -254 -28 -366 -97 -37 -23 -57 -23 -57 0 -1 20 -57 88 -95 114 -80 54
-217 69 -310 33z"/>
<path d="M1825 4890 c-349 -51 -658 -283 -786 -588 -107 -258 -84 -614 56
-870 41 -73 146 -212 191 -252 200 -176 431 -262 709 -262 540 -1 955 307
1066 792 16 71 16 287 0 365 -73 353 -279 610 -599 748 -125 54 -212 69 -402
73 -96 1 -202 -1 -235 -6z m308 -819 c129 -58 194 -223 138 -347 -27 -59 -89
-124 -139 -145 -58 -25 -151 -25 -200 0 -51 26 -126 109 -143 157 -22 66 -16
154 17 214 69 127 204 177 327 121z"/>
<path d="M8626 4722 c-104 -35 -178 -134 -215 -287 -52 -211 -55 -896 -6
-1158 17 -91 58 -198 92 -243 73 -96 235 -137 387 -98 145 37 218 146 263 392
15 82 18 156 18 477 0 394 -6 474 -46 639 -35 140 -88 219 -177 263 -50 24
-70 28 -162 30 -77 2 -118 -2 -154 -15z"/>
</g>
</svg>
